<svg xmlns="http://www.w3.org/2000/svg" xmlns:xlink="http://www.w3.org/1999/xlink" viewBox="0 0 224 179"><defs><filter id="AI_Shadow_3" x="-35.9" y="-30.3" width="140" height="140" name="AI_Shadow_3"><feGaussianBlur result="blur" stdDeviation="7" in="SourceAlpha"/><feOffset result="offsetBlurredAlpha" dy="6" in="blur"/><feMerge><feMergeNode in="offsetBlurredAlpha"/><feMergeNode in="SourceGraphic"/></feMerge></filter><filter id="AI_Shadow_2" x="-30.9" y="-25.3" width="140" height="130" name="AI_Shadow_2"><feGaussianBlur result="blur" stdDeviation="6" in="SourceAlpha"/><feOffset result="offsetBlurredAlpha" dx="2" dy="6" in="blur"/><feMerge><feMergeNode in="offsetBlurredAlpha"/><feMergeNode in="SourceGraphic"/></feMerge></filter></defs><title>Asset 1</title><g id="Layer_2" data-name="Layer 2"><g id="Layer_1-2" data-name="Layer 1"><rect x="32" y="69" width="107" height="107" rx="5.19" fill="#fff"/><path d="M149.71,87.3a2.19,2.19,0,0,1,2.19,2.19v96.62a2.19,2.19,0,0,1-2.19,2.19H53.09a2.19,2.19,0,0,1-2.19-2.19V89.49a2.19,2.19,0,0,1,2.19-2.19h96.62m0-6H53.09a8.19,8.19,0,0,0-8.19,8.19v96.62a8.19,8.19,0,0,0,8.19,8.19h96.62a8.19,8.19,0,0,0,8.19-8.19V89.49a8.19,8.19,0,0,0-8.19-8.19Z" transform="translate(-15.9 -15.3)" fill="#666"/><g opacity="0.93" filter="url(#AI_Shadow_3)"><path d="M91.47,164.8a.93.93,0,0,1-.66-.27L19.17,92.89a.93.93,0,1,1,1.32-1.32l71.64,71.64a.94.94,0,0,1,0,1.32A.93.93,0,0,1,91.47,164.8Z" transform="translate(-15.9 -15.3)" fill="none" stroke="gray" stroke-miterlimit="10" stroke-width="6"/></g><g opacity="0.88" filter="url(#AI_Shadow_2)"><path d="M90.89,165.3a1,1,0,0,1-.7-1.7l145-145A1,1,0,0,1,236.61,20L91.6,165A1,1,0,0,1,90.89,165.3Z" transform="translate(-15.9 -15.3)" fill="none" stroke="gray" stroke-miterlimit="10" stroke-width="6"/></g></g></g></svg>