
<svg xmlns="http://www.w3.org/2000/svg" width="26" height="25" viewBox="0 0 26 25"><title>3</title><g id="Layer_2" data-name="Layer 2"><g id="Layer_1-2" data-name="Layer 1"><path d="M2.14,18.43a.52.52,0,0,0,.31.66l2.64,1a.57.57,0,0,0,.18,0,.5.5,0,0,0,.48-.33.51.51,0,0,0-.3-.66l-2.65-1A.52.52,0,0,0,2.14,18.43Z" style="fill:#002252"/><path d="M6.29,20.52l.22.09a.57.57,0,0,0,.18,0,.51.51,0,0,0,.18-1l-.23-.09a.51.51,0,0,0-.66.31A.5.5,0,0,0,6.29,20.52Z" style="fill:#002252"/><path d="M2.14,16.34a.52.52,0,0,0,.31.66l2,.76a.57.57,0,0,0,.18,0,.52.52,0,0,0,.48-.34.5.5,0,0,0-.31-.65L2.8,16A.51.51,0,0,0,2.14,16.34Z" style="fill:#002252"/><path d="M24.77,17.38v2l-11.16,4.1V10.15l11.16-4.1v6H26V5.17a.62.62,0,0,0-.4-.58L13.21,0a.61.61,0,0,0-.42,0L.4,4.59l-.14.08a.61.61,0,0,0-.26.5V19.83a.62.62,0,0,0,.4.58L12.79,25a.57.57,0,0,0,.42,0L25.6,20.41a.62.62,0,0,0,.4-.58V17.38ZM12.39,23.51,1.22,19.41V6.05l2.12.77V13a.62.62,0,0,0,.4.58l5.55,2a.61.61,0,0,0,.56-.07.6.6,0,0,0,.27-.5V9.32l2.27.83ZM8.89,8.87v5.26L4.57,12.54V7.28ZM5.72,6.39,9.5,5l3.78,1.39L9.5,7.78ZM13,9.07l-1.73-.63,4-1.47a.61.61,0,0,0,0-1.15l-5.55-2a.64.64,0,0,0-.43,0L4,5.74,2.38,5.17,13,1.26,23.61,5.17Z" style="fill:#002252"/><path d="M15.4,17.68,17.19,17a.6.6,0,0,1,.41,0,.24.24,0,0,1,.14.24.59.59,0,0,1-.11.33.71.71,0,0,1-.34.23l-2.52.9a.46.46,0,0,1-.4,0,.31.31,0,0,1-.14-.28,1.15,1.15,0,0,1,.09-.36,2,2,0,0,1,.2-.39c.3-.42.58-.79.82-1.1s.42-.52.53-.63a5.23,5.23,0,0,0,.46-.57,2.21,2.21,0,0,0,.29-.51,1.28,1.28,0,0,0,.09-.44.57.57,0,0,0-.1-.36.51.51,0,0,0-.28-.17.83.83,0,0,0-.4,0,1.28,1.28,0,0,0-.7.64,3.32,3.32,0,0,0-.11.32,1.67,1.67,0,0,1-.19.42.52.52,0,0,1-.29.23.32.32,0,0,1-.29,0,.31.31,0,0,1-.11-.27,1.62,1.62,0,0,1,.11-.53,2.18,2.18,0,0,1,.31-.58,2.44,2.44,0,0,1,.54-.52,2.49,2.49,0,0,1,.76-.4,2.08,2.08,0,0,1,.89-.16,1,1,0,0,1,.42.15.89.89,0,0,1,.28.35,1.06,1.06,0,0,1,.1.48,1.9,1.9,0,0,1-.21.85,3.58,3.58,0,0,1-.43.69c-.14.19-.39.48-.73.88a9.66,9.66,0,0,0-.71.91C15.52,17.48,15.46,17.57,15.4,17.68Z" style="fill:#007afe"/><path d="M19.71,15.54l-1.08.38a.44.44,0,0,1-.37,0,.24.24,0,0,1-.13-.25.56.56,0,0,1,.12-.34.9.9,0,0,1,.38-.25l1.08-.38a.46.46,0,0,1,.38,0,.26.26,0,0,1,.12.25.56.56,0,0,1-.12.34A.77.77,0,0,1,19.71,15.54Z" style="fill:#007afe"/><path d="M22.25,13a1.36,1.36,0,0,0,.54-.38A.88.88,0,0,0,23,12a.43.43,0,0,0-.18-.39.51.51,0,0,0-.49,0,1.2,1.2,0,0,0-.34.18,1.19,1.19,0,0,0-.22.23,2.09,2.09,0,0,0-.14.3l-.13.33a.38.38,0,0,1-.13.16.43.43,0,0,1-.2.11.25.25,0,0,1-.25,0,.26.26,0,0,1-.12-.25,1.09,1.09,0,0,1,.11-.42,2.67,2.67,0,0,1,.83-1,3,3,0,0,1,.69-.36,2.06,2.06,0,0,1,.6-.12,1.17,1.17,0,0,1,.48.09.7.7,0,0,1,.3.29.93.93,0,0,1,.1.45,1.39,1.39,0,0,1-.14.64,3.54,3.54,0,0,1-.43.63,1.14,1.14,0,0,1,.45.17.84.84,0,0,1,.28.31,1,1,0,0,1,.09.45,1.7,1.7,0,0,1-.13.64,2.13,2.13,0,0,1-.37.65,2.93,2.93,0,0,1-1.31,1,1.83,1.83,0,0,1-.73.11A1.08,1.08,0,0,1,21.1,16a1,1,0,0,1-.32-.34.75.75,0,0,1-.1-.35A.65.65,0,0,1,20.8,15a.71.71,0,0,1,.32-.23.31.31,0,0,1,.19,0c.06,0,.1,0,.11.09a1.34,1.34,0,0,0,.39.57.56.56,0,0,0,.57,0,1.33,1.33,0,0,0,.73-.68,1.06,1.06,0,0,0,.13-.52.62.62,0,0,0-.22-.55.67.67,0,0,0-.61,0l-.21.09-.18.08a.33.33,0,0,1-.29,0,.23.23,0,0,1-.11-.22.43.43,0,0,1,.13-.31.73.73,0,0,1,.36-.23Z" style="fill:#007afe"/></g></g></svg>