
<svg xmlns="http://www.w3.org/2000/svg" width="28.48" height="20.1" viewBox="0 0 28.48 20.1"><title>5</title><g id="Layer_2" data-name="Layer 2"><g id="Layer_1-2" data-name="Layer 1"><path d="M27.6,14.09h-3a3.53,3.53,0,0,0-5.16,0H11.13V4.5a.65.65,0,0,0-.65-.65h-6a.64.64,0,0,0-.63.49L2.66,9.2l-1.61.32a.65.65,0,0,0,.25,1.27l2-.4a.66.66,0,0,0,.51-.48L5,5.15H9.83v9.59a.65.65,0,0,0,.65.65h8.14a3.6,3.6,0,0,0-.2,1.15,3.26,3.26,0,0,0,.11.83H12l-.39-.74a.64.64,0,0,0-.57-.34H9a3.55,3.55,0,0,0-7-.4H1.32V15A.65.65,0,0,0,0,15v1.56a.65.65,0,0,0,.65.65H1.93a3.55,3.55,0,0,0,6.89.37.53.53,0,0,0,.12,0h1.71l.39.74a.64.64,0,0,0,.57.34h7.54a3.52,3.52,0,0,0,6-.55h.05a.52.52,0,0,0,.24-.05l2.4-.94a.65.65,0,0,0,.41-.6v-1.8A.65.65,0,0,0,27.6,14.09ZM5.43,18.8a2.27,2.27,0,1,1,2.26-2.26A2.27,2.27,0,0,1,5.43,18.8ZM22,18.8a2.27,2.27,0,1,1,2.26-2.26A2.26,2.26,0,0,1,22,18.8Zm5-2.71-1.42.56s0-.07,0-.11a3.6,3.6,0,0,0-.2-1.15H27Z" style="fill:#002252"/><path d="M9.07,9.63a.28.28,0,0,0,.27-.27V6.19a.27.27,0,0,0-.27-.27H5.82a.28.28,0,0,0-.27.21L4.89,9.3A.32.32,0,0,0,5,9.53a.28.28,0,0,0,.21.1ZM6,6.46H8.8V9.08H5.49Z" style="fill:#002252"/><path d="M26.62,0H13.79a1.9,1.9,0,0,0-1.86,1.93V11A1.89,1.89,0,0,0,13.79,13h2a.63.63,0,1,0,0-1.26h-2a.65.65,0,0,1-.6-.67V1.93a.65.65,0,0,1,.6-.67H26.62a.64.64,0,0,1,.59.67V11a.64.64,0,0,1-.59.67H23.19a.63.63,0,0,0,0,1.26h3.43A1.9,1.9,0,0,0,28.48,11V1.93A1.9,1.9,0,0,0,26.62,0Z" style="fill:#002252"/><path d="M22,15.87a.67.67,0,1,0,.67.67A.67.67,0,0,0,22,15.87Z" style="fill:#002252"/><path d="M.67,13.66A.67.67,0,1,0,0,13,.67.67,0,0,0,.67,13.66Z" style="fill:#002252"/><path d="M5.43,15.87a.67.67,0,1,0,0,1.33.67.67,0,0,0,0-1.33Z" style="fill:#002252"/><g id="Artwork_22" data-name="Artwork 22"><polygon points="15.62 4.95 15.69 4.44 15.69 4.44 19.07 4.44 19.07 4.44 19.07 4.44 19.17 4.95 15.62 4.95" style="fill:#007afe"/><path d="M15.52,5.68l0-.26h3.72l0,.17h0v.08h0l.45,2.26,1-4.49a.56.56,0,0,1,.09-.19A.22.22,0,0,1,21,3.19h2.52a.2.2,0,0,1,.15.06.31.31,0,0,1,.11.2l.81,6.64H23a.2.2,0,0,1-.16-.07.27.27,0,0,1-.1-.19l-.49-4a.13.13,0,0,0-.26,0l-.89,4A.51.51,0,0,1,21,10a.21.21,0,0,1-.17.08H18.67A.23.23,0,0,1,18.5,10a.37.37,0,0,1-.08-.18l-.82-4a.14.14,0,0,0-.27,0l-.55,4a.31.31,0,0,1-.11.19.23.23,0,0,1-.16.06H14.9Z" style="fill:#007afe"/><path d="M15.76,4l.06-.51a.31.31,0,0,1,.11-.2.22.22,0,0,1,.15-.06h2.53a.19.19,0,0,1,.16.07.44.44,0,0,1,.1.19L19,4Z" style="fill:#007afe"/></g></g></g></svg>