
<svg xmlns="http://www.w3.org/2000/svg" width="26" height="26" viewBox="0 0 26 26"><title>2</title><g id="Layer_2" data-name="Layer 2"><g id="Layer_1-2" data-name="Layer 1"><path d="M25.82.18a.63.63,0,0,0-.88,0L23.7,1.43a2,2,0,0,0-.76-.22L14.74.42h-.2a2.09,2.09,0,0,0-1.45.6L7,7.07A.63.63,0,0,0,7,8a.62.62,0,0,0,.44.18A.59.59,0,0,0,7.91,8L14,1.89a.83.83,0,0,1,.58-.24h.07l8.07.77L22,3.09a1.82,1.82,0,0,0-.79-.18,1.84,1.84,0,0,0-1.84,1.84A1.84,1.84,0,1,0,22.91,4l.66-.65.77,8.07a.79.79,0,0,1-.23.65l-12.5,12.5a.79.79,0,0,1-.57.23.82.82,0,0,1-.58-.23l-9-9a.83.83,0,0,1,0-1.15l2.87-2.87a.59.59,0,0,0,.18-.44.58.58,0,0,0-.18-.43.63.63,0,0,0-.44-.19.61.61,0,0,0-.44.19L.6,13.51A2,2,0,0,0,0,15a2,2,0,0,0,.6,1.46l9,9A2.07,2.07,0,0,0,11,26a2,2,0,0,0,1.45-.6L25,12.91a2.07,2.07,0,0,0,.59-1.65l-.79-8.2a1.92,1.92,0,0,0-.22-.75l1.25-1.25A.63.63,0,0,0,25.82.18Zm-4,5.17A.85.85,0,1,1,21.52,4L21,4.49a.37.37,0,0,0,.53.53l.54-.54A.86.86,0,0,1,21.85,5.35Z" style="fill:#002252"/><path d="M6.31,9.3a.62.62,0,1,0-.62-.62A.62.62,0,0,0,6.31,9.3Z" style="fill:#002252"/><path d="M4.68,15.87l5.45,5.45a1.75,1.75,0,0,0,2.45,0S21,13,21,12.91a1.74,1.74,0,0,0,0-2.45L15.54,5a1.75,1.75,0,0,0-2.45,0L4.68,13.42a1.73,1.73,0,0,0-.5,1.23A1.71,1.71,0,0,0,4.68,15.87Zm.78-1.67s8.39-8.38,8.41-8.41a.67.67,0,0,1,.45-.18.65.65,0,0,1,.44.18l5.45,5.45a.64.64,0,0,1,0,.89L11.8,20.54a.64.64,0,0,1-.89,0L5.46,15.09A.64.64,0,0,1,5.46,14.2Z" style="fill:#002252"/><path d="M11.94,14.73v0a1.71,1.71,0,0,0-.1,2.47,1.73,1.73,0,0,0,2.5-.1h0a1.7,1.7,0,1,0-2.41-2.38Zm1.75,1.75h0c-.39.39-.92.52-1.26.18a.9.9,0,0,1,.18-1.29v0a.9.9,0,0,1,1.27-.18A.93.93,0,0,1,13.69,16.48Z" style="fill:#007afe"/><path d="M9,14.12l7.87-1.22a.53.53,0,0,0,.25-.12.41.41,0,0,0,0-.58.37.37,0,0,0-.37-.11L8.91,13.3a.58.58,0,0,0-.26.13.39.39,0,0,0,0,.56A.43.43,0,0,0,9,14.12Z" style="fill:#007afe"/><path d="M13.86,11.46h0A1.71,1.71,0,0,0,14,9a1.73,1.73,0,0,0-2.5.09v0a1.71,1.71,0,0,0-.1,2.47A1.73,1.73,0,0,0,13.86,11.46ZM12.12,9.72v0a.9.9,0,0,1,1.27-.18.93.93,0,0,1-.18,1.3h0c-.39.39-.92.53-1.26.18A.9.9,0,0,1,12.12,9.72Z" style="fill:#007afe"/></g></g></svg>