
<svg xmlns="http://www.w3.org/2000/svg" width="24" height="26" viewBox="0 0 24 26"><title>1</title><g id="Layer_2" data-name="Layer 2"><g id="Layer_1-2" data-name="Layer 1"><path d="M17.52,9A1.07,1.07,0,0,0,16,9l-5.62,5.67L8,12.28a1.07,1.07,0,0,0-1.52,0,1.09,1.09,0,0,0,0,1.53L9.62,17a1.07,1.07,0,0,0,1.52,0l6.38-6.43a1.09,1.09,0,0,0,0-1.53" style="fill:#007afe"/><path d="M23.49,4.46A48.32,48.32,0,0,1,12.35.09a.73.73,0,0,0-.7,0A47.27,47.27,0,0,1,.51,4.46.65.65,0,0,0,0,5.08v5.54A15.5,15.5,0,0,0,5.27,22.35C7.86,24.7,10.9,26,12,26a10.06,10.06,0,0,0,4.12-1.69.54.54,0,0,1,0-.18.67.67,0,0,1-.61-.85.26.26,0,0,1-.1-.07A9.64,9.64,0,0,1,12,24.71a13,13,0,0,1-5.76-3.28A14.3,14.3,0,0,1,1.39,10.62V5.56A48.17,48.17,0,0,0,12,1.39,49.7,49.7,0,0,0,22.61,5.56v5.06a14,14,0,0,1-3,8.78.92.92,0,0,1,.18.34.76.76,0,0,1,.79.15c.07.08,0,.28,0,.37l.18-.21A15.2,15.2,0,0,0,24,10.62V5.08A.65.65,0,0,0,23.49,4.46Z" style="fill:#002252"/><path d="M3,9.42a.66.66,0,0,0,.69-.64V7.16c.94-.29,1.88-.6,2.8-.93a.63.63,0,0,0,.39-.84A.71.71,0,0,0,6,5c-1,.38-2.12.73-3.19,1a.66.66,0,0,0-.49.62V8.78A.67.67,0,0,0,3,9.42Z" style="fill:#002252"/><path d="M7.91,5.63a.72.72,0,0,0,.29-.06.67.67,0,0,0,.37-.35.6.6,0,0,0,0-.49.72.72,0,0,0-.93-.33.64.64,0,0,0-.36.36.56.56,0,0,0,0,.49A.7.7,0,0,0,7.91,5.63Z" style="fill:#002252"/><path d="M17.61,22a.75.75,0,0,0-.53.07l0,0a.61.61,0,0,0-.25.88.72.72,0,0,0,.6.32.73.73,0,0,0,.35-.09l0,0a.72.72,0,0,0,.32-.39.61.61,0,0,0-.08-.49A.69.69,0,0,0,17.61,22Z" style="fill:#002252"/><circle cx="15.74" cy="23.77" r="0.66" style="fill:#002252"/><circle cx="20.17" cy="19.79" r="0.67" style="fill:#002252"/></g></g></svg>